<svg xmlns="http://www.w3.org/2000/svg" width="216" height="216"><rect x="0" y="0" width="100%" height="100%" fill="rgb(75, 102, 185)"  /><rect x="2.0" y="2.0" width="28.0" height="28.0" fill="none" stroke="#ddd" style="opacity:0.02;stroke-width:4.0px;"  /><rect x="10.0" y="10.0" width="12.0" height="12.0" fill="none" stroke="#222" style="opacity:0.06333333333333334;stroke-width:4.0px;"  /><rect x="38.0" y="2.0" width="28.0" height="28.0" fill="none" stroke="#222" style="opacity:0.028666666666666667;stroke-width:4.0px;"  /><rect x="46.0" y="10.0" width="12.0" height="12.0" fill="none" stroke="#ddd" style="opacity:0.14133333333333334;stroke-width:4.0px;"  /><rect x="74.0" y="2.0" width="28.0" height="28.0" fill="none" stroke="#ddd" style="opacity:0.14133333333333334;stroke-width:4.0px;"  /><rect x="82.0" y="10.0" width="12.0" height="12.0" fill="none" stroke="#222" style="opacity:0.098;stroke-width:4.0px;"  /><rect x="110.0" y="2.0" width="28.0" height="28.0" fill="none" stroke="#ddd" style="opacity:0.03733333333333333;stroke-width:4.0px;"  /><rect x="118.0" y="10.0" width="12.0" height="12.0" fill="none" stroke="#222" style="opacity:0.028666666666666667;stroke-width:4.0px;"  /><rect x="146.0" y="2.0" width="28.0" height="28.0" fill="none" stroke="#222" style="opacity:0.11533333333333334;stroke-width:4.0px;"  /><rect x="154.0" y="10.0" width="12.0" height="12.0" fill="none" stroke="#222" style="opacity:0.11533333333333334;stroke-width:4.0px;"  /><rect x="182.0" y="2.0" width="28.0" height="28.0" fill="none" stroke="#ddd" style="opacity:0.08933333333333333;stroke-width:4.0px;"  /><rect x="190.0" y="10.0" width="12.0" height="12.0" fill="none" stroke="#222" style="opacity:0.11533333333333334;stroke-width:4.0px;"  /><rect x="2.0" y="38.0" width="28.0" height="28.0" fill="none" stroke="#222" style="opacity:0.046;stroke-width:4.0px;"  /><rect x="10.0" y="46.0" width="12.0" height="12.0" fill="none" stroke="#ddd" style="opacity:0.07200000000000001;stroke-width:4.0px;"  /><rect x="38.0" y="38.0" width="28.0" height="28.0" fill="none" stroke="#ddd" style="opacity:0.07200000000000001;stroke-width:4.0px;"  /><rect x="46.0" y="46.0" width="12.0" height="12.0" fill="none" stroke="#222" style="opacity:0.15;stroke-width:4.0px;"  /><rect x="74.0" y="38.0" width="28.0" height="28.0" fill="none" stroke="#222" style="opacity:0.13266666666666665;stroke-width:4.0px;"  /><rect x="82.0" y="46.0" width="12.0" height="12.0" fill="none" stroke="#222" style="opacity:0.08066666666666666;stroke-width:4.0px;"  /><rect x="110.0" y="38.0" width="28.0" height="28.0" fill="none" stroke="#ddd" style="opacity:0.14133333333333334;stroke-width:4.0px;"  /><rect x="118.0" y="46.0" width="12.0" height="12.0" fill="none" stroke="#222" style="opacity:0.028666666666666667;stroke-width:4.0px;"  /><rect x="146.0" y="38.0" width="28.0" height="28.0" fill="none" stroke="#222" style="opacity:0.028666666666666667;stroke-width:4.0px;"  /><rect x="154.0" y="46.0" width="12.0" height="12.0" fill="none" stroke="#ddd" style="opacity:0.10666666666666667;stroke-width:4.0px;"  /><rect x="182.0" y="38.0" width="28.0" height="28.0" fill="none" stroke="#ddd" style="opacity:0.14133333333333334;stroke-width:4.0px;"  /><rect x="190.0" y="46.0" width="12.0" height="12.0" fill="none" stroke="#ddd" style="opacity:0.07200000000000001;stroke-width:4.0px;"  /><rect x="2.0" y="74.0" width="28.0" height="28.0" fill="none" stroke="#222" style="opacity:0.098;stroke-width:4.0px;"  /><rect x="10.0" y="82.0" width="12.0" height="12.0" fill="none" stroke="#222" style="opacity:0.15;stroke-width:4.0px;"  /><rect x="38.0" y="74.0" width="28.0" height="28.0" fill="none" stroke="#222" style="opacity:0.11533333333333334;stroke-width:4.0px;"  /><rect x="46.0" y="82.0" width="12.0" height="12.0" fill="none" stroke="#ddd" style="opacity:0.05466666666666667;stroke-width:4.0px;"  /><rect x="74.0" y="74.0" width="28.0" height="28.0" fill="none" stroke="#222" style="opacity:0.06333333333333334;stroke-width:4.0px;"  /><rect x="82.0" y="82.0" width="12.0" height="12.0" fill="none" stroke="#222" style="opacity:0.13266666666666665;stroke-width:4.0px;"  /><rect x="110.0" y="74.0" width="28.0" height="28.0" fill="none" stroke="#222" style="opacity:0.15;stroke-width:4.0px;"  /><rect x="118.0" y="82.0" width="12.0" height="12.0" fill="none" stroke="#222" style="opacity:0.08066666666666666;stroke-width:4.0px;"  /><rect x="146.0" y="74.0" width="28.0" height="28.0" fill="none" stroke="#ddd" style="opacity:0.14133333333333334;stroke-width:4.0px;"  /><rect x="154.0" y="82.0" width="12.0" height="12.0" fill="none" stroke="#222" style="opacity:0.11533333333333334;stroke-width:4.0px;"  /><rect x="182.0" y="74.0" width="28.0" height="28.0" fill="none" stroke="#222" style="opacity:0.098;stroke-width:4.0px;"  /><rect x="190.0" y="82.0" width="12.0" height="12.0" fill="none" stroke="#ddd" style="opacity:0.10666666666666667;stroke-width:4.0px;"  /><rect x="2.0" y="110.0" width="28.0" height="28.0" fill="none" stroke="#ddd" style="opacity:0.08933333333333333;stroke-width:4.0px;"  /><rect x="10.0" y="118.0" width="12.0" height="12.0" fill="none" stroke="#ddd" style="opacity:0.08933333333333333;stroke-width:4.0px;"  /><rect x="38.0" y="110.0" width="28.0" height="28.0" fill="none" stroke="#ddd" style="opacity:0.05466666666666667;stroke-width:4.0px;"  /><rect x="46.0" y="118.0" width="12.0" height="12.0" fill="none" stroke="#222" style="opacity:0.13266666666666665;stroke-width:4.0px;"  /><rect x="74.0" y="110.0" width="28.0" height="28.0" fill="none" stroke="#222" style="opacity:0.13266666666666665;stroke-width:4.0px;"  /><rect x="82.0" y="118.0" width="12.0" height="12.0" fill="none" stroke="#ddd" style="opacity:0.05466666666666667;stroke-width:4.0px;"  /><rect x="110.0" y="110.0" width="28.0" height="28.0" fill="none" stroke="#ddd" style="opacity:0.08933333333333333;stroke-width:4.0px;"  /><rect x="118.0" y="118.0" width="12.0" height="12.0" fill="none" stroke="#ddd" style="opacity:0.08933333333333333;stroke-width:4.0px;"  /><rect x="146.0" y="110.0" width="28.0" height="28.0" fill="none" stroke="#ddd" style="opacity:0.10666666666666667;stroke-width:4.0px;"  /><rect x="154.0" y="118.0" width="12.0" height="12.0" fill="none" stroke="#222" style="opacity:0.098;stroke-width:4.0px;"  /><rect x="182.0" y="110.0" width="28.0" height="28.0" fill="none" stroke="#222" style="opacity:0.11533333333333334;stroke-width:4.0px;"  /><rect x="190.0" y="118.0" width="12.0" height="12.0" fill="none" stroke="#ddd" style="opacity:0.14133333333333334;stroke-width:4.0px;"  /><rect x="2.0" y="146.0" width="28.0" height="28.0" fill="none" stroke="#222" style="opacity:0.08066666666666666;stroke-width:4.0px;"  /><rect x="10.0" y="154.0" width="12.0" height="12.0" fill="none" stroke="#222" style="opacity:0.15;stroke-width:4.0px;"  /><rect x="38.0" y="146.0" width="28.0" height="28.0" fill="none" stroke="#222" style="opacity:0.13266666666666665;stroke-width:4.0px;"  /><rect x="46.0" y="154.0" width="12.0" height="12.0" fill="none" stroke="#222" style="opacity:0.06333333333333334;stroke-width:4.0px;"  /><rect x="74.0" y="146.0" width="28.0" height="28.0" fill="none" stroke="#ddd" style="opacity:0.05466666666666667;stroke-width:4.0px;"  /><rect x="82.0" y="154.0" width="12.0" height="12.0" fill="none" stroke="#222" style="opacity:0.11533333333333334;stroke-width:4.0px;"  /><rect x="110.0" y="146.0" width="28.0" height="28.0" fill="none" stroke="#222" style="opacity:0.15;stroke-width:4.0px;"  /><rect x="118.0" y="154.0" width="12.0" height="12.0" fill="none" stroke="#222" style="opacity:0.098;stroke-width:4.0px;"  /><rect x="146.0" y="146.0" width="28.0" height="28.0" fill="none" stroke="#ddd" style="opacity:0.07200000000000001;stroke-width:4.0px;"  /><rect x="154.0" y="154.0" width="12.0" height="12.0" fill="none" stroke="#ddd" style="opacity:0.14133333333333334;stroke-width:4.0px;"  /><rect x="182.0" y="146.0" width="28.0" height="28.0" fill="none" stroke="#ddd" style="opacity:0.10666666666666667;stroke-width:4.0px;"  /><rect x="190.0" y="154.0" width="12.0" height="12.0" fill="none" stroke="#222" style="opacity:0.028666666666666667;stroke-width:4.0px;"  /><rect x="2.0" y="182.0" width="28.0" height="28.0" fill="none" stroke="#222" style="opacity:0.028666666666666667;stroke-width:4.0px;"  /><rect x="10.0" y="190.0" width="12.0" height="12.0" fill="none" stroke="#ddd" style="opacity:0.14133333333333334;stroke-width:4.0px;"  /><rect x="38.0" y="182.0" width="28.0" height="28.0" fill="none" stroke="#222" style="opacity:0.08066666666666666;stroke-width:4.0px;"  /><rect x="46.0" y="190.0" width="12.0" height="12.0" fill="none" stroke="#222" style="opacity:0.13266666666666665;stroke-width:4.0px;"  /><rect x="74.0" y="182.0" width="28.0" height="28.0" fill="none" stroke="#222" style="opacity:0.15;stroke-width:4.0px;"  /><rect x="82.0" y="190.0" width="12.0" height="12.0" fill="none" stroke="#ddd" style="opacity:0.07200000000000001;stroke-width:4.0px;"  /><rect x="110.0" y="182.0" width="28.0" height="28.0" fill="none" stroke="#ddd" style="opacity:0.07200000000000001;stroke-width:4.0px;"  /><rect x="118.0" y="190.0" width="12.0" height="12.0" fill="none" stroke="#222" style="opacity:0.046;stroke-width:4.0px;"  /><rect x="146.0" y="182.0" width="28.0" height="28.0" fill="none" stroke="#222" style="opacity:0.11533333333333334;stroke-width:4.0px;"  /><rect x="154.0" y="190.0" width="12.0" height="12.0" fill="none" stroke="#ddd" style="opacity:0.08933333333333333;stroke-width:4.0px;"  /><rect x="182.0" y="182.0" width="28.0" height="28.0" fill="none" stroke="#222" style="opacity:0.11533333333333334;stroke-width:4.0px;"  /><rect x="190.0" y="190.0" width="12.0" height="12.0" fill="none" stroke="#222" style="opacity:0.11533333333333334;stroke-width:4.0px;"  /></svg>