<svg xmlns="http://www.w3.org/2000/svg" width="200" height="684"><rect x="0" y="0" width="100%" height="100%" fill="rgb(65, 153, 195)"  /><path d="M0 30 C 35.0 0, 65.0 0, 100 30 S 165.0 60, 200 30 S 265.0 0, 300.0, 30" fill="none" stroke="#222" style="opacity:0.06333333333333334;stroke-width:19px;" transform="translate(-50, -45.0)"  /><path d="M0 30 C 35.0 0, 65.0 0, 100 30 S 165.0 60, 200 30 S 265.0 0, 300.0, 30" fill="none" stroke="#222" style="opacity:0.06333333333333334;stroke-width:19px;" transform="translate(-50, 639.0)"  /><path d="M0 30 C 35.0 0, 65.0 0, 100 30 S 165.0 60, 200 30 S 265.0 0, 300.0, 30" fill="none" stroke="#ddd" style="opacity:0.02;stroke-width:19px;" transform="translate(-50, -26.0)"  /><path d="M0 30 C 35.0 0, 65.0 0, 100 30 S 165.0 60, 200 30 S 265.0 0, 300.0, 30" fill="none" stroke="#ddd" style="opacity:0.02;stroke-width:19px;" transform="translate(-50, 658.0)"  /><path d="M0 30 C 35.0 0, 65.0 0, 100 30 S 165.0 60, 200 30 S 265.0 0, 300.0, 30" fill="none" stroke="#222" style="opacity:0.098;stroke-width:19px;" transform="translate(-50, -7.0)"  /><path d="M0 30 C 35.0 0, 65.0 0, 100 30 S 165.0 60, 200 30 S 265.0 0, 300.0, 30" fill="none" stroke="#222" style="opacity:0.098;stroke-width:19px;" transform="translate(-50, 677.0)"  /><path d="M0 30 C 35.0 0, 65.0 0, 100 30 S 165.0 60, 200 30 S 265.0 0, 300.0, 30" fill="none" stroke="#ddd" style="opacity:0.02;stroke-width:19px;" transform="translate(-50, 12.0)"  /><path d="M0 30 C 35.0 0, 65.0 0, 100 30 S 165.0 60, 200 30 S 265.0 0, 300.0, 30" fill="none" stroke="#ddd" style="opacity:0.02;stroke-width:19px;" transform="translate(-50, 696.0)"  /><path d="M0 30 C 35.0 0, 65.0 0, 100 30 S 165.0 60, 200 30 S 265.0 0, 300.0, 30" fill="none" stroke="#ddd" style="opacity:0.10666666666666667;stroke-width:19px;" transform="translate(-50, 31.0)"  /><path d="M0 30 C 35.0 0, 65.0 0, 100 30 S 165.0 60, 200 30 S 265.0 0, 300.0, 30" fill="none" stroke="#ddd" style="opacity:0.10666666666666667;stroke-width:19px;" transform="translate(-50, 715.0)"  /><path d="M0 30 C 35.0 0, 65.0 0, 100 30 S 165.0 60, 200 30 S 265.0 0, 300.0, 30" fill="none" stroke="#222" style="opacity:0.098;stroke-width:19px;" transform="translate(-50, 50.0)"  /><path d="M0 30 C 35.0 0, 65.0 0, 100 30 S 165.0 60, 200 30 S 265.0 0, 300.0, 30" fill="none" stroke="#222" style="opacity:0.098;stroke-width:19px;" transform="translate(-50, 734.0)"  /><path d="M0 30 C 35.0 0, 65.0 0, 100 30 S 165.0 60, 200 30 S 265.0 0, 300.0, 30" fill="none" stroke="#ddd" style="opacity:0.14133333333333334;stroke-width:19px;" transform="translate(-50, 69.0)"  /><path d="M0 30 C 35.0 0, 65.0 0, 100 30 S 165.0 60, 200 30 S 265.0 0, 300.0, 30" fill="none" stroke="#ddd" style="opacity:0.14133333333333334;stroke-width:19px;" transform="translate(-50, 753.0)"  /><path d="M0 30 C 35.0 0, 65.0 0, 100 30 S 165.0 60, 200 30 S 265.0 0, 300.0, 30" fill="none" stroke="#222" style="opacity:0.08066666666666666;stroke-width:19px;" transform="translate(-50, 88.0)"  /><path d="M0 30 C 35.0 0, 65.0 0, 100 30 S 165.0 60, 200 30 S 265.0 0, 300.0, 30" fill="none" stroke="#222" style="opacity:0.08066666666666666;stroke-width:19px;" transform="translate(-50, 772.0)"  /><path d="M0 30 C 35.0 0, 65.0 0, 100 30 S 165.0 60, 200 30 S 265.0 0, 300.0, 30" fill="none" stroke="#ddd" style="opacity:0.08933333333333333;stroke-width:19px;" transform="translate(-50, 107.0)"  /><path d="M0 30 C 35.0 0, 65.0 0, 100 30 S 165.0 60, 200 30 S 265.0 0, 300.0, 30" fill="none" stroke="#ddd" style="opacity:0.08933333333333333;stroke-width:19px;" transform="translate(-50, 791.0)"  /><path d="M0 30 C 35.0 0, 65.0 0, 100 30 S 165.0 60, 200 30 S 265.0 0, 300.0, 30" fill="none" stroke="#ddd" style="opacity:0.12400000000000001;stroke-width:19px;" transform="translate(-50, 126.0)"  /><path d="M0 30 C 35.0 0, 65.0 0, 100 30 S 165.0 60, 200 30 S 265.0 0, 300.0, 30" fill="none" stroke="#ddd" style="opacity:0.12400000000000001;stroke-width:19px;" transform="translate(-50, 810.0)"  /><path d="M0 30 C 35.0 0, 65.0 0, 100 30 S 165.0 60, 200 30 S 265.0 0, 300.0, 30" fill="none" stroke="#ddd" style="opacity:0.08933333333333333;stroke-width:19px;" transform="translate(-50, 145.0)"  /><path d="M0 30 C 35.0 0, 65.0 0, 100 30 S 165.0 60, 200 30 S 265.0 0, 300.0, 30" fill="none" stroke="#ddd" style="opacity:0.08933333333333333;stroke-width:19px;" transform="translate(-50, 829.0)"  /><path d="M0 30 C 35.0 0, 65.0 0, 100 30 S 165.0 60, 200 30 S 265.0 0, 300.0, 30" fill="none" stroke="#222" style="opacity:0.098;stroke-width:19px;" transform="translate(-50, 164.0)"  /><path d="M0 30 C 35.0 0, 65.0 0, 100 30 S 165.0 60, 200 30 S 265.0 0, 300.0, 30" fill="none" stroke="#222" style="opacity:0.098;stroke-width:19px;" transform="translate(-50, 848.0)"  /><path d="M0 30 C 35.0 0, 65.0 0, 100 30 S 165.0 60, 200 30 S 265.0 0, 300.0, 30" fill="none" stroke="#222" style="opacity:0.098;stroke-width:19px;" transform="translate(-50, 183.0)"  /><path d="M0 30 C 35.0 0, 65.0 0, 100 30 S 165.0 60, 200 30 S 265.0 0, 300.0, 30" fill="none" stroke="#222" style="opacity:0.098;stroke-width:19px;" transform="translate(-50, 867.0)"  /><path d="M0 30 C 35.0 0, 65.0 0, 100 30 S 165.0 60, 200 30 S 265.0 0, 300.0, 30" fill="none" stroke="#ddd" style="opacity:0.03733333333333333;stroke-width:19px;" transform="translate(-50, 202.0)"  /><path d="M0 30 C 35.0 0, 65.0 0, 100 30 S 165.0 60, 200 30 S 265.0 0, 300.0, 30" fill="none" stroke="#ddd" style="opacity:0.03733333333333333;stroke-width:19px;" transform="translate(-50, 886.0)"  /><path d="M0 30 C 35.0 0, 65.0 0, 100 30 S 165.0 60, 200 30 S 265.0 0, 300.0, 30" fill="none" stroke="#222" style="opacity:0.08066666666666666;stroke-width:19px;" transform="translate(-50, 221.0)"  /><path d="M0 30 C 35.0 0, 65.0 0, 100 30 S 165.0 60, 200 30 S 265.0 0, 300.0, 30" fill="none" stroke="#222" style="opacity:0.08066666666666666;stroke-width:19px;" transform="translate(-50, 905.0)"  /><path d="M0 30 C 35.0 0, 65.0 0, 100 30 S 165.0 60, 200 30 S 265.0 0, 300.0, 30" fill="none" stroke="#ddd" style="opacity:0.03733333333333333;stroke-width:19px;" transform="translate(-50, 240.0)"  /><path d="M0 30 C 35.0 0, 65.0 0, 100 30 S 165.0 60, 200 30 S 265.0 0, 300.0, 30" fill="none" stroke="#ddd" style="opacity:0.03733333333333333;stroke-width:19px;" transform="translate(-50, 924.0)"  /><path d="M0 30 C 35.0 0, 65.0 0, 100 30 S 165.0 60, 200 30 S 265.0 0, 300.0, 30" fill="none" stroke="#ddd" style="opacity:0.10666666666666667;stroke-width:19px;" transform="translate(-50, 259.0)"  /><path d="M0 30 C 35.0 0, 65.0 0, 100 30 S 165.0 60, 200 30 S 265.0 0, 300.0, 30" fill="none" stroke="#ddd" style="opacity:0.10666666666666667;stroke-width:19px;" transform="translate(-50, 943.0)"  /><path d="M0 30 C 35.0 0, 65.0 0, 100 30 S 165.0 60, 200 30 S 265.0 0, 300.0, 30" fill="none" stroke="#222" style="opacity:0.028666666666666667;stroke-width:19px;" transform="translate(-50, 278.0)"  /><path d="M0 30 C 35.0 0, 65.0 0, 100 30 S 165.0 60, 200 30 S 265.0 0, 300.0, 30" fill="none" stroke="#222" style="opacity:0.028666666666666667;stroke-width:19px;" transform="translate(-50, 962.0)"  /><path d="M0 30 C 35.0 0, 65.0 0, 100 30 S 165.0 60, 200 30 S 265.0 0, 300.0, 30" fill="none" stroke="#ddd" style="opacity:0.02;stroke-width:19px;" transform="translate(-50, 297.0)"  /><path d="M0 30 C 35.0 0, 65.0 0, 100 30 S 165.0 60, 200 30 S 265.0 0, 300.0, 30" fill="none" stroke="#ddd" style="opacity:0.02;stroke-width:19px;" transform="translate(-50, 981.0)"  /><path d="M0 30 C 35.0 0, 65.0 0, 100 30 S 165.0 60, 200 30 S 265.0 0, 300.0, 30" fill="none" stroke="#ddd" style="opacity:0.07200000000000001;stroke-width:19px;" transform="translate(-50, 316.0)"  /><path d="M0 30 C 35.0 0, 65.0 0, 100 30 S 165.0 60, 200 30 S 265.0 0, 300.0, 30" fill="none" stroke="#ddd" style="opacity:0.07200000000000001;stroke-width:19px;" transform="translate(-50, 1000.0)"  /><path d="M0 30 C 35.0 0, 65.0 0, 100 30 S 165.0 60, 200 30 S 265.0 0, 300.0, 30" fill="none" stroke="#ddd" style="opacity:0.05466666666666667;stroke-width:19px;" transform="translate(-50, 335.0)"  /><path d="M0 30 C 35.0 0, 65.0 0, 100 30 S 165.0 60, 200 30 S 265.0 0, 300.0, 30" fill="none" stroke="#ddd" style="opacity:0.05466666666666667;stroke-width:19px;" transform="translate(-50, 1019.0)"  /><path d="M0 30 C 35.0 0, 65.0 0, 100 30 S 165.0 60, 200 30 S 265.0 0, 300.0, 30" fill="none" stroke="#ddd" style="opacity:0.08933333333333333;stroke-width:19px;" transform="translate(-50, 354.0)"  /><path d="M0 30 C 35.0 0, 65.0 0, 100 30 S 165.0 60, 200 30 S 265.0 0, 300.0, 30" fill="none" stroke="#ddd" style="opacity:0.08933333333333333;stroke-width:19px;" transform="translate(-50, 1038.0)"  /><path d="M0 30 C 35.0 0, 65.0 0, 100 30 S 165.0 60, 200 30 S 265.0 0, 300.0, 30" fill="none" stroke="#222" style="opacity:0.11533333333333334;stroke-width:19px;" transform="translate(-50, 373.0)"  /><path d="M0 30 C 35.0 0, 65.0 0, 100 30 S 165.0 60, 200 30 S 265.0 0, 300.0, 30" fill="none" stroke="#222" style="opacity:0.11533333333333334;stroke-width:19px;" transform="translate(-50, 1057.0)"  /><path d="M0 30 C 35.0 0, 65.0 0, 100 30 S 165.0 60, 200 30 S 265.0 0, 300.0, 30" fill="none" stroke="#222" style="opacity:0.046;stroke-width:19px;" transform="translate(-50, 392.0)"  /><path d="M0 30 C 35.0 0, 65.0 0, 100 30 S 165.0 60, 200 30 S 265.0 0, 300.0, 30" fill="none" stroke="#222" style="opacity:0.046;stroke-width:19px;" transform="translate(-50, 1076.0)"  /><path d="M0 30 C 35.0 0, 65.0 0, 100 30 S 165.0 60, 200 30 S 265.0 0, 300.0, 30" fill="none" stroke="#222" style="opacity:0.098;stroke-width:19px;" transform="translate(-50, 411.0)"  /><path d="M0 30 C 35.0 0, 65.0 0, 100 30 S 165.0 60, 200 30 S 265.0 0, 300.0, 30" fill="none" stroke="#222" style="opacity:0.098;stroke-width:19px;" transform="translate(-50, 1095.0)"  /><path d="M0 30 C 35.0 0, 65.0 0, 100 30 S 165.0 60, 200 30 S 265.0 0, 300.0, 30" fill="none" stroke="#ddd" style="opacity:0.14133333333333334;stroke-width:19px;" transform="translate(-50, 430.0)"  /><path d="M0 30 C 35.0 0, 65.0 0, 100 30 S 165.0 60, 200 30 S 265.0 0, 300.0, 30" fill="none" stroke="#ddd" style="opacity:0.14133333333333334;stroke-width:19px;" transform="translate(-50, 1114.0)"  /><path d="M0 30 C 35.0 0, 65.0 0, 100 30 S 165.0 60, 200 30 S 265.0 0, 300.0, 30" fill="none" stroke="#222" style="opacity:0.08066666666666666;stroke-width:19px;" transform="translate(-50, 449.0)"  /><path d="M0 30 C 35.0 0, 65.0 0, 100 30 S 165.0 60, 200 30 S 265.0 0, 300.0, 30" fill="none" stroke="#222" style="opacity:0.08066666666666666;stroke-width:19px;" transform="translate(-50, 1133.0)"  /><path d="M0 30 C 35.0 0, 65.0 0, 100 30 S 165.0 60, 200 30 S 265.0 0, 300.0, 30" fill="none" stroke="#ddd" style="opacity:0.07200000000000001;stroke-width:19px;" transform="translate(-50, 468.0)"  /><path d="M0 30 C 35.0 0, 65.0 0, 100 30 S 165.0 60, 200 30 S 265.0 0, 300.0, 30" fill="none" stroke="#ddd" style="opacity:0.07200000000000001;stroke-width:19px;" transform="translate(-50, 1152.0)"  /><path d="M0 30 C 35.0 0, 65.0 0, 100 30 S 165.0 60, 200 30 S 265.0 0, 300.0, 30" fill="none" stroke="#ddd" style="opacity:0.08933333333333333;stroke-width:19px;" transform="translate(-50, 487.0)"  /><path d="M0 30 C 35.0 0, 65.0 0, 100 30 S 165.0 60, 200 30 S 265.0 0, 300.0, 30" fill="none" stroke="#ddd" style="opacity:0.08933333333333333;stroke-width:19px;" transform="translate(-50, 1171.0)"  /><path d="M0 30 C 35.0 0, 65.0 0, 100 30 S 165.0 60, 200 30 S 265.0 0, 300.0, 30" fill="none" stroke="#222" style="opacity:0.098;stroke-width:19px;" transform="translate(-50, 506.0)"  /><path d="M0 30 C 35.0 0, 65.0 0, 100 30 S 165.0 60, 200 30 S 265.0 0, 300.0, 30" fill="none" stroke="#222" style="opacity:0.098;stroke-width:19px;" transform="translate(-50, 1190.0)"  /><path d="M0 30 C 35.0 0, 65.0 0, 100 30 S 165.0 60, 200 30 S 265.0 0, 300.0, 30" fill="none" stroke="#222" style="opacity:0.11533333333333334;stroke-width:19px;" transform="translate(-50, 525.0)"  /><path d="M0 30 C 35.0 0, 65.0 0, 100 30 S 165.0 60, 200 30 S 265.0 0, 300.0, 30" fill="none" stroke="#222" style="opacity:0.11533333333333334;stroke-width:19px;" transform="translate(-50, 1209.0)"  /><path d="M0 30 C 35.0 0, 65.0 0, 100 30 S 165.0 60, 200 30 S 265.0 0, 300.0, 30" fill="none" stroke="#ddd" style="opacity:0.12400000000000001;stroke-width:19px;" transform="translate(-50, 544.0)"  /><path d="M0 30 C 35.0 0, 65.0 0, 100 30 S 165.0 60, 200 30 S 265.0 0, 300.0, 30" fill="none" stroke="#ddd" style="opacity:0.12400000000000001;stroke-width:19px;" transform="translate(-50, 1228.0)"  /><path d="M0 30 C 35.0 0, 65.0 0, 100 30 S 165.0 60, 200 30 S 265.0 0, 300.0, 30" fill="none" stroke="#ddd" style="opacity:0.05466666666666667;stroke-width:19px;" transform="translate(-50, 563.0)"  /><path d="M0 30 C 35.0 0, 65.0 0, 100 30 S 165.0 60, 200 30 S 265.0 0, 300.0, 30" fill="none" stroke="#ddd" style="opacity:0.05466666666666667;stroke-width:19px;" transform="translate(-50, 1247.0)"  /><path d="M0 30 C 35.0 0, 65.0 0, 100 30 S 165.0 60, 200 30 S 265.0 0, 300.0, 30" fill="none" stroke="#ddd" style="opacity:0.02;stroke-width:19px;" transform="translate(-50, 582.0)"  /><path d="M0 30 C 35.0 0, 65.0 0, 100 30 S 165.0 60, 200 30 S 265.0 0, 300.0, 30" fill="none" stroke="#ddd" style="opacity:0.02;stroke-width:19px;" transform="translate(-50, 1266.0)"  /><path d="M0 30 C 35.0 0, 65.0 0, 100 30 S 165.0 60, 200 30 S 265.0 0, 300.0, 30" fill="none" stroke="#ddd" style="opacity:0.02;stroke-width:19px;" transform="translate(-50, 601.0)"  /><path d="M0 30 C 35.0 0, 65.0 0, 100 30 S 165.0 60, 200 30 S 265.0 0, 300.0, 30" fill="none" stroke="#ddd" style="opacity:0.02;stroke-width:19px;" transform="translate(-50, 1285.0)"  /><path d="M0 30 C 35.0 0, 65.0 0, 100 30 S 165.0 60, 200 30 S 265.0 0, 300.0, 30" fill="none" stroke="#222" style="opacity:0.08066666666666666;stroke-width:19px;" transform="translate(-50, 620.0)"  /><path d="M0 30 C 35.0 0, 65.0 0, 100 30 S 165.0 60, 200 30 S 265.0 0, 300.0, 30" fill="none" stroke="#222" style="opacity:0.08066666666666666;stroke-width:19px;" transform="translate(-50, 1304.0)"  /></svg>