<svg xmlns="http://www.w3.org/2000/svg" width="360" height="237"><rect x="0" y="0" width="100%" height="100%" fill="rgb(61, 199, 134)"  /><g stroke="#000" stroke-opacity="0.02" fill="#222" fill-opacity="0.098" stroke-width="1" transform="translate(0.0,-30.0)" ><polyline points="0,0,30.0,20.4,30.0,60.0,0,39.6,0,0"  /><polyline points="30.0,20.4,60.0,0,60.0,39.6,30.0,60.0,30.0,20.4"  /></g><g stroke="#000" stroke-opacity="0.02" fill="#222" fill-opacity="0.098" stroke-width="1" transform="translate(0.0,207.60000000000002)" ><polyline points="0,0,30.0,20.4,30.0,60.0,0,39.6,0,0"  /><polyline points="30.0,20.4,60.0,0,60.0,39.6,30.0,60.0,30.0,20.4"  /></g><g stroke="#000" stroke-opacity="0.02" fill="#222" fill-opacity="0.098" stroke-width="1" transform="translate(60.0,-30.0)" ><polyline points="0,0,30.0,20.4,30.0,60.0,0,39.6,0,0"  /><polyline points="30.0,20.4,60.0,0,60.0,39.6,30.0,60.0,30.0,20.4"  /></g><g stroke="#000" stroke-opacity="0.02" fill="#222" fill-opacity="0.098" stroke-width="1" transform="translate(60.0,207.60000000000002)" ><polyline points="0,0,30.0,20.4,30.0,60.0,0,39.6,0,0"  /><polyline points="30.0,20.4,60.0,0,60.0,39.6,30.0,60.0,30.0,20.4"  /></g><g stroke="#000" stroke-opacity="0.02" fill="#ddd" fill-opacity="0.12400000000000001" stroke-width="1" transform="translate(120.0,-30.0)" ><polyline points="0,0,30.0,20.4,30.0,60.0,0,39.6,0,0"  /><polyline points="30.0,20.4,60.0,0,60.0,39.6,30.0,60.0,30.0,20.4"  /></g><g stroke="#000" stroke-opacity="0.02" fill="#ddd" fill-opacity="0.12400000000000001" stroke-width="1" transform="translate(120.0,207.60000000000002)" ><polyline points="0,0,30.0,20.4,30.0,60.0,0,39.6,0,0"  /><polyline points="30.0,20.4,60.0,0,60.0,39.6,30.0,60.0,30.0,20.4"  /></g><g stroke="#000" stroke-opacity="0.02" fill="#ddd" fill-opacity="0.08933333333333333" stroke-width="1" transform="translate(180.0,-30.0)" ><polyline points="0,0,30.0,20.4,30.0,60.0,0,39.6,0,0"  /><polyline points="30.0,20.4,60.0,0,60.0,39.6,30.0,60.0,30.0,20.4"  /></g><g stroke="#000" stroke-opacity="0.02" fill="#ddd" fill-opacity="0.08933333333333333" stroke-width="1" transform="translate(180.0,207.60000000000002)" ><polyline points="0,0,30.0,20.4,30.0,60.0,0,39.6,0,0"  /><polyline points="30.0,20.4,60.0,0,60.0,39.6,30.0,60.0,30.0,20.4"  /></g><g stroke="#000" stroke-opacity="0.02" fill="#ddd" fill-opacity="0.08933333333333333" stroke-width="1" transform="translate(240.0,-30.0)" ><polyline points="0,0,30.0,20.4,30.0,60.0,0,39.6,0,0"  /><polyline points="30.0,20.4,60.0,0,60.0,39.6,30.0,60.0,30.0,20.4"  /></g><g stroke="#000" stroke-opacity="0.02" fill="#ddd" fill-opacity="0.08933333333333333" stroke-width="1" transform="translate(240.0,207.60000000000002)" ><polyline points="0,0,30.0,20.4,30.0,60.0,0,39.6,0,0"  /><polyline points="30.0,20.4,60.0,0,60.0,39.6,30.0,60.0,30.0,20.4"  /></g><g stroke="#000" stroke-opacity="0.02" fill="#ddd" fill-opacity="0.08933333333333333" stroke-width="1" transform="translate(300.0,-30.0)" ><polyline points="0,0,30.0,20.4,30.0,60.0,0,39.6,0,0"  /><polyline points="30.0,20.4,60.0,0,60.0,39.6,30.0,60.0,30.0,20.4"  /></g><g stroke="#000" stroke-opacity="0.02" fill="#ddd" fill-opacity="0.08933333333333333" stroke-width="1" transform="translate(300.0,207.60000000000002)" ><polyline points="0,0,30.0,20.4,30.0,60.0,0,39.6,0,0"  /><polyline points="30.0,20.4,60.0,0,60.0,39.6,30.0,60.0,30.0,20.4"  /></g><g stroke="#000" stroke-opacity="0.02" fill="#ddd" fill-opacity="0.03733333333333333" stroke-width="1" transform="translate(0.0,9.600000000000001)" ><polyline points="0,0,30.0,20.4,30.0,60.0,0,39.6,0,0"  /><polyline points="30.0,20.4,60.0,0,60.0,39.6,30.0,60.0,30.0,20.4"  /></g><g stroke="#000" stroke-opacity="0.02" fill="#ddd" fill-opacity="0.12400000000000001" stroke-width="1" transform="translate(60.0,9.600000000000001)" ><polyline points="0,0,30.0,20.4,30.0,60.0,0,39.6,0,0"  /><polyline points="30.0,20.4,60.0,0,60.0,39.6,30.0,60.0,30.0,20.4"  /></g><g stroke="#000" stroke-opacity="0.02" fill="#222" fill-opacity="0.15" stroke-width="1" transform="translate(120.0,9.600000000000001)" ><polyline points="0,0,30.0,20.4,30.0,60.0,0,39.6,0,0"  /><polyline points="30.0,20.4,60.0,0,60.0,39.6,30.0,60.0,30.0,20.4"  /></g><g stroke="#000" stroke-opacity="0.02" fill="#222" fill-opacity="0.08066666666666666" stroke-width="1" transform="translate(180.0,9.600000000000001)" ><polyline points="0,0,30.0,20.4,30.0,60.0,0,39.6,0,0"  /><polyline points="30.0,20.4,60.0,0,60.0,39.6,30.0,60.0,30.0,20.4"  /></g><g stroke="#000" stroke-opacity="0.02" fill="#ddd" fill-opacity="0.03733333333333333" stroke-width="1" transform="translate(240.0,9.600000000000001)" ><polyline points="0,0,30.0,20.4,30.0,60.0,0,39.6,0,0"  /><polyline points="30.0,20.4,60.0,0,60.0,39.6,30.0,60.0,30.0,20.4"  /></g><g stroke="#000" stroke-opacity="0.02" fill="#ddd" fill-opacity="0.08933333333333333" stroke-width="1" transform="translate(300.0,9.600000000000001)" ><polyline points="0,0,30.0,20.4,30.0,60.0,0,39.6,0,0"  /><polyline points="30.0,20.4,60.0,0,60.0,39.6,30.0,60.0,30.0,20.4"  /></g><g stroke="#000" stroke-opacity="0.02" fill="#ddd" fill-opacity="0.14133333333333334" stroke-width="1" transform="translate(0.0,49.2)" ><polyline points="0,0,30.0,20.4,30.0,60.0,0,39.6,0,0"  /><polyline points="30.0,20.4,60.0,0,60.0,39.6,30.0,60.0,30.0,20.4"  /></g><g stroke="#000" stroke-opacity="0.02" fill="#222" fill-opacity="0.11533333333333334" stroke-width="1" transform="translate(60.0,49.2)" ><polyline points="0,0,30.0,20.4,30.0,60.0,0,39.6,0,0"  /><polyline points="30.0,20.4,60.0,0,60.0,39.6,30.0,60.0,30.0,20.4"  /></g><g stroke="#000" stroke-opacity="0.02" fill="#222" fill-opacity="0.098" stroke-width="1" transform="translate(120.0,49.2)" ><polyline points="0,0,30.0,20.4,30.0,60.0,0,39.6,0,0"  /><polyline points="30.0,20.4,60.0,0,60.0,39.6,30.0,60.0,30.0,20.4"  /></g><g stroke="#000" stroke-opacity="0.02" fill="#ddd" fill-opacity="0.05466666666666667" stroke-width="1" transform="translate(180.0,49.2)" ><polyline points="0,0,30.0,20.4,30.0,60.0,0,39.6,0,0"  /><polyline points="30.0,20.4,60.0,0,60.0,39.6,30.0,60.0,30.0,20.4"  /></g><g stroke="#000" stroke-opacity="0.02" fill="#ddd" fill-opacity="0.08933333333333333" stroke-width="1" transform="translate(240.0,49.2)" ><polyline points="0,0,30.0,20.4,30.0,60.0,0,39.6,0,0"  /><polyline points="30.0,20.4,60.0,0,60.0,39.6,30.0,60.0,30.0,20.4"  /></g><g stroke="#000" stroke-opacity="0.02" fill="#ddd" fill-opacity="0.03733333333333333" stroke-width="1" transform="translate(300.0,49.2)" ><polyline points="0,0,30.0,20.4,30.0,60.0,0,39.6,0,0"  /><polyline points="30.0,20.4,60.0,0,60.0,39.6,30.0,60.0,30.0,20.4"  /></g><g stroke="#000" stroke-opacity="0.02" fill="#ddd" fill-opacity="0.05466666666666667" stroke-width="1" transform="translate(0.0,88.80000000000001)" ><polyline points="0,0,30.0,20.4,30.0,60.0,0,39.6,0,0"  /><polyline points="30.0,20.4,60.0,0,60.0,39.6,30.0,60.0,30.0,20.4"  /></g><g stroke="#000" stroke-opacity="0.02" fill="#ddd" fill-opacity="0.02" stroke-width="1" transform="translate(60.0,88.80000000000001)" ><polyline points="0,0,30.0,20.4,30.0,60.0,0,39.6,0,0"  /><polyline points="30.0,20.4,60.0,0,60.0,39.6,30.0,60.0,30.0,20.4"  /></g><g stroke="#000" stroke-opacity="0.02" fill="#222" fill-opacity="0.15" stroke-width="1" transform="translate(120.0,88.80000000000001)" ><polyline points="0,0,30.0,20.4,30.0,60.0,0,39.6,0,0"  /><polyline points="30.0,20.4,60.0,0,60.0,39.6,30.0,60.0,30.0,20.4"  /></g><g stroke="#000" stroke-opacity="0.02" fill="#ddd" fill-opacity="0.02" stroke-width="1" transform="translate(180.0,88.80000000000001)" ><polyline points="0,0,30.0,20.4,30.0,60.0,0,39.6,0,0"  /><polyline points="30.0,20.4,60.0,0,60.0,39.6,30.0,60.0,30.0,20.4"  /></g><g stroke="#000" stroke-opacity="0.02" fill="#ddd" fill-opacity="0.03733333333333333" stroke-width="1" transform="translate(240.0,88.80000000000001)" ><polyline points="0,0,30.0,20.4,30.0,60.0,0,39.6,0,0"  /><polyline points="30.0,20.4,60.0,0,60.0,39.6,30.0,60.0,30.0,20.4"  /></g><g stroke="#000" stroke-opacity="0.02" fill="#ddd" fill-opacity="0.05466666666666667" stroke-width="1" transform="translate(300.0,88.80000000000001)" ><polyline points="0,0,30.0,20.4,30.0,60.0,0,39.6,0,0"  /><polyline points="30.0,20.4,60.0,0,60.0,39.6,30.0,60.0,30.0,20.4"  /></g><g stroke="#000" stroke-opacity="0.02" fill="#222" fill-opacity="0.028666666666666667" stroke-width="1" transform="translate(0.0,128.4)" ><polyline points="0,0,30.0,20.4,30.0,60.0,0,39.6,0,0"  /><polyline points="30.0,20.4,60.0,0,60.0,39.6,30.0,60.0,30.0,20.4"  /></g><g stroke="#000" stroke-opacity="0.02" fill="#222" fill-opacity="0.11533333333333334" stroke-width="1" transform="translate(60.0,128.4)" ><polyline points="0,0,30.0,20.4,30.0,60.0,0,39.6,0,0"  /><polyline points="30.0,20.4,60.0,0,60.0,39.6,30.0,60.0,30.0,20.4"  /></g><g stroke="#000" stroke-opacity="0.02" fill="#222" fill-opacity="0.046" stroke-width="1" transform="translate(120.0,128.4)" ><polyline points="0,0,30.0,20.4,30.0,60.0,0,39.6,0,0"  /><polyline points="30.0,20.4,60.0,0,60.0,39.6,30.0,60.0,30.0,20.4"  /></g><g stroke="#000" stroke-opacity="0.02" fill="#222" fill-opacity="0.028666666666666667" stroke-width="1" transform="translate(180.0,128.4)" ><polyline points="0,0,30.0,20.4,30.0,60.0,0,39.6,0,0"  /><polyline points="30.0,20.4,60.0,0,60.0,39.6,30.0,60.0,30.0,20.4"  /></g><g stroke="#000" stroke-opacity="0.02" fill="#ddd" fill-opacity="0.14133333333333334" stroke-width="1" transform="translate(240.0,128.4)" ><polyline points="0,0,30.0,20.4,30.0,60.0,0,39.6,0,0"  /><polyline points="30.0,20.4,60.0,0,60.0,39.6,30.0,60.0,30.0,20.4"  /></g><g stroke="#000" stroke-opacity="0.02" fill="#ddd" fill-opacity="0.14133333333333334" stroke-width="1" transform="translate(300.0,128.4)" ><polyline points="0,0,30.0,20.4,30.0,60.0,0,39.6,0,0"  /><polyline points="30.0,20.4,60.0,0,60.0,39.6,30.0,60.0,30.0,20.4"  /></g><g stroke="#000" stroke-opacity="0.02" fill="#222" fill-opacity="0.08066666666666666" stroke-width="1" transform="translate(0.0,168.0)" ><polyline points="0,0,30.0,20.4,30.0,60.0,0,39.6,0,0"  /><polyline points="30.0,20.4,60.0,0,60.0,39.6,30.0,60.0,30.0,20.4"  /></g><g stroke="#000" stroke-opacity="0.02" fill="#ddd" fill-opacity="0.07200000000000001" stroke-width="1" transform="translate(60.0,168.0)" ><polyline points="0,0,30.0,20.4,30.0,60.0,0,39.6,0,0"  /><polyline points="30.0,20.4,60.0,0,60.0,39.6,30.0,60.0,30.0,20.4"  /></g><g stroke="#000" stroke-opacity="0.02" fill="#ddd" fill-opacity="0.14133333333333334" stroke-width="1" transform="translate(120.0,168.0)" ><polyline points="0,0,30.0,20.4,30.0,60.0,0,39.6,0,0"  /><polyline points="30.0,20.4,60.0,0,60.0,39.6,30.0,60.0,30.0,20.4"  /></g><g stroke="#000" stroke-opacity="0.02" fill="#222" fill-opacity="0.028666666666666667" stroke-width="1" transform="translate(180.0,168.0)" ><polyline points="0,0,30.0,20.4,30.0,60.0,0,39.6,0,0"  /><polyline points="30.0,20.4,60.0,0,60.0,39.6,30.0,60.0,30.0,20.4"  /></g><g stroke="#000" stroke-opacity="0.02" fill="#ddd" fill-opacity="0.03733333333333333" stroke-width="1" transform="translate(240.0,168.0)" ><polyline points="0,0,30.0,20.4,30.0,60.0,0,39.6,0,0"  /><polyline points="30.0,20.4,60.0,0,60.0,39.6,30.0,60.0,30.0,20.4"  /></g><g stroke="#000" stroke-opacity="0.02" fill="#ddd" fill-opacity="0.05466666666666667" stroke-width="1" transform="translate(300.0,168.0)" ><polyline points="0,0,30.0,20.4,30.0,60.0,0,39.6,0,0"  /><polyline points="30.0,20.4,60.0,0,60.0,39.6,30.0,60.0,30.0,20.4"  /></g></svg>