<svg xmlns="http://www.w3.org/2000/svg" width="180" height="1008"><rect x="0" y="0" width="100%" height="100%" fill="rgb(54, 206, 78)"  /><path d="M0 44 C 31.499999999999996 0, 58.5 0, 90 44 S 148.5 88, 180 44 S 238.5 0, 270.0, 44" fill="none" stroke="#ddd" style="opacity:0.05466666666666667;stroke-width:28px;" transform="translate(-45, -66.0)"  /><path d="M0 44 C 31.499999999999996 0, 58.5 0, 90 44 S 148.5 88, 180 44 S 238.5 0, 270.0, 44" fill="none" stroke="#ddd" style="opacity:0.05466666666666667;stroke-width:28px;" transform="translate(-45, 942.0)"  /><path d="M0 44 C 31.499999999999996 0, 58.5 0, 90 44 S 148.5 88, 180 44 S 238.5 0, 270.0, 44" fill="none" stroke="#222" style="opacity:0.046;stroke-width:28px;" transform="translate(-45, -38.0)"  /><path d="M0 44 C 31.499999999999996 0, 58.5 0, 90 44 S 148.5 88, 180 44 S 238.5 0, 270.0, 44" fill="none" stroke="#222" style="opacity:0.046;stroke-width:28px;" transform="translate(-45, 970.0)"  /><path d="M0 44 C 31.499999999999996 0, 58.5 0, 90 44 S 148.5 88, 180 44 S 238.5 0, 270.0, 44" fill="none" stroke="#ddd" style="opacity:0.14133333333333334;stroke-width:28px;" transform="translate(-45, -10.0)"  /><path d="M0 44 C 31.499999999999996 0, 58.5 0, 90 44 S 148.5 88, 180 44 S 238.5 0, 270.0, 44" fill="none" stroke="#ddd" style="opacity:0.14133333333333334;stroke-width:28px;" transform="translate(-45, 998.0)"  /><path d="M0 44 C 31.499999999999996 0, 58.5 0, 90 44 S 148.5 88, 180 44 S 238.5 0, 270.0, 44" fill="none" stroke="#222" style="opacity:0.028666666666666667;stroke-width:28px;" transform="translate(-45, 18.0)"  /><path d="M0 44 C 31.499999999999996 0, 58.5 0, 90 44 S 148.5 88, 180 44 S 238.5 0, 270.0, 44" fill="none" stroke="#222" style="opacity:0.028666666666666667;stroke-width:28px;" transform="translate(-45, 1026.0)"  /><path d="M0 44 C 31.499999999999996 0, 58.5 0, 90 44 S 148.5 88, 180 44 S 238.5 0, 270.0, 44" fill="none" stroke="#222" style="opacity:0.098;stroke-width:28px;" transform="translate(-45, 46.0)"  /><path d="M0 44 C 31.499999999999996 0, 58.5 0, 90 44 S 148.5 88, 180 44 S 238.5 0, 270.0, 44" fill="none" stroke="#222" style="opacity:0.098;stroke-width:28px;" transform="translate(-45, 1054.0)"  /><path d="M0 44 C 31.499999999999996 0, 58.5 0, 90 44 S 148.5 88, 180 44 S 238.5 0, 270.0, 44" fill="none" stroke="#ddd" style="opacity:0.07200000000000001;stroke-width:28px;" transform="translate(-45, 74.0)"  /><path d="M0 44 C 31.499999999999996 0, 58.5 0, 90 44 S 148.5 88, 180 44 S 238.5 0, 270.0, 44" fill="none" stroke="#ddd" style="opacity:0.07200000000000001;stroke-width:28px;" transform="translate(-45, 1082.0)"  /><path d="M0 44 C 31.499999999999996 0, 58.5 0, 90 44 S 148.5 88, 180 44 S 238.5 0, 270.0, 44" fill="none" stroke="#ddd" style="opacity:0.10666666666666667;stroke-width:28px;" transform="translate(-45, 102.0)"  /><path d="M0 44 C 31.499999999999996 0, 58.5 0, 90 44 S 148.5 88, 180 44 S 238.5 0, 270.0, 44" fill="none" stroke="#ddd" style="opacity:0.10666666666666667;stroke-width:28px;" transform="translate(-45, 1110.0)"  /><path d="M0 44 C 31.499999999999996 0, 58.5 0, 90 44 S 148.5 88, 180 44 S 238.5 0, 270.0, 44" fill="none" stroke="#222" style="opacity:0.08066666666666666;stroke-width:28px;" transform="translate(-45, 130.0)"  /><path d="M0 44 C 31.499999999999996 0, 58.5 0, 90 44 S 148.5 88, 180 44 S 238.5 0, 270.0, 44" fill="none" stroke="#222" style="opacity:0.08066666666666666;stroke-width:28px;" transform="translate(-45, 1138.0)"  /><path d="M0 44 C 31.499999999999996 0, 58.5 0, 90 44 S 148.5 88, 180 44 S 238.5 0, 270.0, 44" fill="none" stroke="#222" style="opacity:0.06333333333333334;stroke-width:28px;" transform="translate(-45, 158.0)"  /><path d="M0 44 C 31.499999999999996 0, 58.5 0, 90 44 S 148.5 88, 180 44 S 238.5 0, 270.0, 44" fill="none" stroke="#222" style="opacity:0.06333333333333334;stroke-width:28px;" transform="translate(-45, 1166.0)"  /><path d="M0 44 C 31.499999999999996 0, 58.5 0, 90 44 S 148.5 88, 180 44 S 238.5 0, 270.0, 44" fill="none" stroke="#222" style="opacity:0.11533333333333334;stroke-width:28px;" transform="translate(-45, 186.0)"  /><path d="M0 44 C 31.499999999999996 0, 58.5 0, 90 44 S 148.5 88, 180 44 S 238.5 0, 270.0, 44" fill="none" stroke="#222" style="opacity:0.11533333333333334;stroke-width:28px;" transform="translate(-45, 1194.0)"  /><path d="M0 44 C 31.499999999999996 0, 58.5 0, 90 44 S 148.5 88, 180 44 S 238.5 0, 270.0, 44" fill="none" stroke="#222" style="opacity:0.046;stroke-width:28px;" transform="translate(-45, 214.0)"  /><path d="M0 44 C 31.499999999999996 0, 58.5 0, 90 44 S 148.5 88, 180 44 S 238.5 0, 270.0, 44" fill="none" stroke="#222" style="opacity:0.046;stroke-width:28px;" transform="translate(-45, 1222.0)"  /><path d="M0 44 C 31.499999999999996 0, 58.5 0, 90 44 S 148.5 88, 180 44 S 238.5 0, 270.0, 44" fill="none" stroke="#222" style="opacity:0.046;stroke-width:28px;" transform="translate(-45, 242.0)"  /><path d="M0 44 C 31.499999999999996 0, 58.5 0, 90 44 S 148.5 88, 180 44 S 238.5 0, 270.0, 44" fill="none" stroke="#222" style="opacity:0.046;stroke-width:28px;" transform="translate(-45, 1250.0)"  /><path d="M0 44 C 31.499999999999996 0, 58.5 0, 90 44 S 148.5 88, 180 44 S 238.5 0, 270.0, 44" fill="none" stroke="#222" style="opacity:0.028666666666666667;stroke-width:28px;" transform="translate(-45, 270.0)"  /><path d="M0 44 C 31.499999999999996 0, 58.5 0, 90 44 S 148.5 88, 180 44 S 238.5 0, 270.0, 44" fill="none" stroke="#222" style="opacity:0.028666666666666667;stroke-width:28px;" transform="translate(-45, 1278.0)"  /><path d="M0 44 C 31.499999999999996 0, 58.5 0, 90 44 S 148.5 88, 180 44 S 238.5 0, 270.0, 44" fill="none" stroke="#ddd" style="opacity:0.10666666666666667;stroke-width:28px;" transform="translate(-45, 298.0)"  /><path d="M0 44 C 31.499999999999996 0, 58.5 0, 90 44 S 148.5 88, 180 44 S 238.5 0, 270.0, 44" fill="none" stroke="#ddd" style="opacity:0.10666666666666667;stroke-width:28px;" transform="translate(-45, 1306.0)"  /><path d="M0 44 C 31.499999999999996 0, 58.5 0, 90 44 S 148.5 88, 180 44 S 238.5 0, 270.0, 44" fill="none" stroke="#ddd" style="opacity:0.10666666666666667;stroke-width:28px;" transform="translate(-45, 326.0)"  /><path d="M0 44 C 31.499999999999996 0, 58.5 0, 90 44 S 148.5 88, 180 44 S 238.5 0, 270.0, 44" fill="none" stroke="#ddd" style="opacity:0.10666666666666667;stroke-width:28px;" transform="translate(-45, 1334.0)"  /><path d="M0 44 C 31.499999999999996 0, 58.5 0, 90 44 S 148.5 88, 180 44 S 238.5 0, 270.0, 44" fill="none" stroke="#ddd" style="opacity:0.05466666666666667;stroke-width:28px;" transform="translate(-45, 354.0)"  /><path d="M0 44 C 31.499999999999996 0, 58.5 0, 90 44 S 148.5 88, 180 44 S 238.5 0, 270.0, 44" fill="none" stroke="#ddd" style="opacity:0.05466666666666667;stroke-width:28px;" transform="translate(-45, 1362.0)"  /><path d="M0 44 C 31.499999999999996 0, 58.5 0, 90 44 S 148.5 88, 180 44 S 238.5 0, 270.0, 44" fill="none" stroke="#222" style="opacity:0.06333333333333334;stroke-width:28px;" transform="translate(-45, 382.0)"  /><path d="M0 44 C 31.499999999999996 0, 58.5 0, 90 44 S 148.5 88, 180 44 S 238.5 0, 270.0, 44" fill="none" stroke="#222" style="opacity:0.06333333333333334;stroke-width:28px;" transform="translate(-45, 1390.0)"  /><path d="M0 44 C 31.499999999999996 0, 58.5 0, 90 44 S 148.5 88, 180 44 S 238.5 0, 270.0, 44" fill="none" stroke="#ddd" style="opacity:0.08933333333333333;stroke-width:28px;" transform="translate(-45, 410.0)"  /><path d="M0 44 C 31.499999999999996 0, 58.5 0, 90 44 S 148.5 88, 180 44 S 238.5 0, 270.0, 44" fill="none" stroke="#ddd" style="opacity:0.08933333333333333;stroke-width:28px;" transform="translate(-45, 1418.0)"  /><path d="M0 44 C 31.499999999999996 0, 58.5 0, 90 44 S 148.5 88, 180 44 S 238.5 0, 270.0, 44" fill="none" stroke="#ddd" style="opacity:0.07200000000000001;stroke-width:28px;" transform="translate(-45, 438.0)"  /><path d="M0 44 C 31.499999999999996 0, 58.5 0, 90 44 S 148.5 88, 180 44 S 238.5 0, 270.0, 44" fill="none" stroke="#ddd" style="opacity:0.07200000000000001;stroke-width:28px;" transform="translate(-45, 1446.0)"  /><path d="M0 44 C 31.499999999999996 0, 58.5 0, 90 44 S 148.5 88, 180 44 S 238.5 0, 270.0, 44" fill="none" stroke="#ddd" style="opacity:0.05466666666666667;stroke-width:28px;" transform="translate(-45, 466.0)"  /><path d="M0 44 C 31.499999999999996 0, 58.5 0, 90 44 S 148.5 88, 180 44 S 238.5 0, 270.0, 44" fill="none" stroke="#ddd" style="opacity:0.05466666666666667;stroke-width:28px;" transform="translate(-45, 1474.0)"  /><path d="M0 44 C 31.499999999999996 0, 58.5 0, 90 44 S 148.5 88, 180 44 S 238.5 0, 270.0, 44" fill="none" stroke="#ddd" style="opacity:0.05466666666666667;stroke-width:28px;" transform="translate(-45, 494.0)"  /><path d="M0 44 C 31.499999999999996 0, 58.5 0, 90 44 S 148.5 88, 180 44 S 238.5 0, 270.0, 44" fill="none" stroke="#ddd" style="opacity:0.05466666666666667;stroke-width:28px;" transform="translate(-45, 1502.0)"  /><path d="M0 44 C 31.499999999999996 0, 58.5 0, 90 44 S 148.5 88, 180 44 S 238.5 0, 270.0, 44" fill="none" stroke="#222" style="opacity:0.15;stroke-width:28px;" transform="translate(-45, 522.0)"  /><path d="M0 44 C 31.499999999999996 0, 58.5 0, 90 44 S 148.5 88, 180 44 S 238.5 0, 270.0, 44" fill="none" stroke="#222" style="opacity:0.15;stroke-width:28px;" transform="translate(-45, 1530.0)"  /><path d="M0 44 C 31.499999999999996 0, 58.5 0, 90 44 S 148.5 88, 180 44 S 238.5 0, 270.0, 44" fill="none" stroke="#222" style="opacity:0.08066666666666666;stroke-width:28px;" transform="translate(-45, 550.0)"  /><path d="M0 44 C 31.499999999999996 0, 58.5 0, 90 44 S 148.5 88, 180 44 S 238.5 0, 270.0, 44" fill="none" stroke="#222" style="opacity:0.08066666666666666;stroke-width:28px;" transform="translate(-45, 1558.0)"  /><path d="M0 44 C 31.499999999999996 0, 58.5 0, 90 44 S 148.5 88, 180 44 S 238.5 0, 270.0, 44" fill="none" stroke="#222" style="opacity:0.13266666666666665;stroke-width:28px;" transform="translate(-45, 578.0)"  /><path d="M0 44 C 31.499999999999996 0, 58.5 0, 90 44 S 148.5 88, 180 44 S 238.5 0, 270.0, 44" fill="none" stroke="#222" style="opacity:0.13266666666666665;stroke-width:28px;" transform="translate(-45, 1586.0)"  /><path d="M0 44 C 31.499999999999996 0, 58.5 0, 90 44 S 148.5 88, 180 44 S 238.5 0, 270.0, 44" fill="none" stroke="#222" style="opacity:0.15;stroke-width:28px;" transform="translate(-45, 606.0)"  /><path d="M0 44 C 31.499999999999996 0, 58.5 0, 90 44 S 148.5 88, 180 44 S 238.5 0, 270.0, 44" fill="none" stroke="#222" style="opacity:0.15;stroke-width:28px;" transform="translate(-45, 1614.0)"  /><path d="M0 44 C 31.499999999999996 0, 58.5 0, 90 44 S 148.5 88, 180 44 S 238.5 0, 270.0, 44" fill="none" stroke="#ddd" style="opacity:0.05466666666666667;stroke-width:28px;" transform="translate(-45, 634.0)"  /><path d="M0 44 C 31.499999999999996 0, 58.5 0, 90 44 S 148.5 88, 180 44 S 238.5 0, 270.0, 44" fill="none" stroke="#ddd" style="opacity:0.05466666666666667;stroke-width:28px;" transform="translate(-45, 1642.0)"  /><path d="M0 44 C 31.499999999999996 0, 58.5 0, 90 44 S 148.5 88, 180 44 S 238.5 0, 270.0, 44" fill="none" stroke="#222" style="opacity:0.06333333333333334;stroke-width:28px;" transform="translate(-45, 662.0)"  /><path d="M0 44 C 31.499999999999996 0, 58.5 0, 90 44 S 148.5 88, 180 44 S 238.5 0, 270.0, 44" fill="none" stroke="#222" style="opacity:0.06333333333333334;stroke-width:28px;" transform="translate(-45, 1670.0)"  /><path d="M0 44 C 31.499999999999996 0, 58.5 0, 90 44 S 148.5 88, 180 44 S 238.5 0, 270.0, 44" fill="none" stroke="#222" style="opacity:0.046;stroke-width:28px;" transform="translate(-45, 690.0)"  /><path d="M0 44 C 31.499999999999996 0, 58.5 0, 90 44 S 148.5 88, 180 44 S 238.5 0, 270.0, 44" fill="none" stroke="#222" style="opacity:0.046;stroke-width:28px;" transform="translate(-45, 1698.0)"  /><path d="M0 44 C 31.499999999999996 0, 58.5 0, 90 44 S 148.5 88, 180 44 S 238.5 0, 270.0, 44" fill="none" stroke="#ddd" style="opacity:0.05466666666666667;stroke-width:28px;" transform="translate(-45, 718.0)"  /><path d="M0 44 C 31.499999999999996 0, 58.5 0, 90 44 S 148.5 88, 180 44 S 238.5 0, 270.0, 44" fill="none" stroke="#ddd" style="opacity:0.05466666666666667;stroke-width:28px;" transform="translate(-45, 1726.0)"  /><path d="M0 44 C 31.499999999999996 0, 58.5 0, 90 44 S 148.5 88, 180 44 S 238.5 0, 270.0, 44" fill="none" stroke="#222" style="opacity:0.046;stroke-width:28px;" transform="translate(-45, 746.0)"  /><path d="M0 44 C 31.499999999999996 0, 58.5 0, 90 44 S 148.5 88, 180 44 S 238.5 0, 270.0, 44" fill="none" stroke="#222" style="opacity:0.046;stroke-width:28px;" transform="translate(-45, 1754.0)"  /><path d="M0 44 C 31.499999999999996 0, 58.5 0, 90 44 S 148.5 88, 180 44 S 238.5 0, 270.0, 44" fill="none" stroke="#222" style="opacity:0.098;stroke-width:28px;" transform="translate(-45, 774.0)"  /><path d="M0 44 C 31.499999999999996 0, 58.5 0, 90 44 S 148.5 88, 180 44 S 238.5 0, 270.0, 44" fill="none" stroke="#222" style="opacity:0.098;stroke-width:28px;" transform="translate(-45, 1782.0)"  /><path d="M0 44 C 31.499999999999996 0, 58.5 0, 90 44 S 148.5 88, 180 44 S 238.5 0, 270.0, 44" fill="none" stroke="#222" style="opacity:0.028666666666666667;stroke-width:28px;" transform="translate(-45, 802.0)"  /><path d="M0 44 C 31.499999999999996 0, 58.5 0, 90 44 S 148.5 88, 180 44 S 238.5 0, 270.0, 44" fill="none" stroke="#222" style="opacity:0.028666666666666667;stroke-width:28px;" transform="translate(-45, 1810.0)"  /><path d="M0 44 C 31.499999999999996 0, 58.5 0, 90 44 S 148.5 88, 180 44 S 238.5 0, 270.0, 44" fill="none" stroke="#ddd" style="opacity:0.12400000000000001;stroke-width:28px;" transform="translate(-45, 830.0)"  /><path d="M0 44 C 31.499999999999996 0, 58.5 0, 90 44 S 148.5 88, 180 44 S 238.5 0, 270.0, 44" fill="none" stroke="#ddd" style="opacity:0.12400000000000001;stroke-width:28px;" transform="translate(-45, 1838.0)"  /><path d="M0 44 C 31.499999999999996 0, 58.5 0, 90 44 S 148.5 88, 180 44 S 238.5 0, 270.0, 44" fill="none" stroke="#ddd" style="opacity:0.07200000000000001;stroke-width:28px;" transform="translate(-45, 858.0)"  /><path d="M0 44 C 31.499999999999996 0, 58.5 0, 90 44 S 148.5 88, 180 44 S 238.5 0, 270.0, 44" fill="none" stroke="#ddd" style="opacity:0.07200000000000001;stroke-width:28px;" transform="translate(-45, 1866.0)"  /><path d="M0 44 C 31.499999999999996 0, 58.5 0, 90 44 S 148.5 88, 180 44 S 238.5 0, 270.0, 44" fill="none" stroke="#222" style="opacity:0.098;stroke-width:28px;" transform="translate(-45, 886.0)"  /><path d="M0 44 C 31.499999999999996 0, 58.5 0, 90 44 S 148.5 88, 180 44 S 238.5 0, 270.0, 44" fill="none" stroke="#222" style="opacity:0.098;stroke-width:28px;" transform="translate(-45, 1894.0)"  /><path d="M0 44 C 31.499999999999996 0, 58.5 0, 90 44 S 148.5 88, 180 44 S 238.5 0, 270.0, 44" fill="none" stroke="#222" style="opacity:0.098;stroke-width:28px;" transform="translate(-45, 914.0)"  /><path d="M0 44 C 31.499999999999996 0, 58.5 0, 90 44 S 148.5 88, 180 44 S 238.5 0, 270.0, 44" fill="none" stroke="#222" style="opacity:0.098;stroke-width:28px;" transform="translate(-45, 1922.0)"  /></svg>