<svg xmlns="http://www.w3.org/2000/svg" width="45" height="77"><rect x="0" y="0" width="100%" height="100%" fill="rgb(204, 56, 92)"  /><polyline points="7.5, 0, 15.0, 12.990381056766578, 0, 12.990381056766578, 7.5, 0" fill="#ddd" fill-opacity="0.02" stroke="#000" stroke-opacity="0.02" transform="translate(-7.5, 0.0) rotate(180, 7.5, 6.495190528383289)"  /><polyline points="7.5, 0, 15.0, 12.990381056766578, 0, 12.990381056766578, 7.5, 0" fill="#ddd" fill-opacity="0.02" stroke="#000" stroke-opacity="0.02" transform="translate(37.5, 0.0) rotate(180, 7.5, 6.495190528383289)"  /><polyline points="7.5, 0, 15.0, 12.990381056766578, 0, 12.990381056766578, 7.5, 0" fill="#222" fill-opacity="0.08066666666666666" stroke="#000" stroke-opacity="0.02" transform="translate(0.0, 0.0) rotate(0, 7.5, 6.495190528383289)"  /><polyline points="7.5, 0, 15.0, 12.990381056766578, 0, 12.990381056766578, 7.5, 0" fill="#222" fill-opacity="0.11533333333333334" stroke="#000" stroke-opacity="0.02" transform="translate(7.5, 0.0) rotate(180, 7.5, 6.495190528383289)"  /><polyline points="7.5, 0, 15.0, 12.990381056766578, 0, 12.990381056766578, 7.5, 0" fill="#222" fill-opacity="0.11533333333333334" stroke="#000" stroke-opacity="0.02" transform="translate(15.0, 0.0) rotate(0, 7.5, 6.495190528383289)"  /><polyline points="7.5, 0, 15.0, 12.990381056766578, 0, 12.990381056766578, 7.5, 0" fill="#ddd" fill-opacity="0.05466666666666667" stroke="#000" stroke-opacity="0.02" transform="translate(22.5, 0.0) rotate(180, 7.5, 6.495190528383289)"  /><polyline points="7.5, 0, 15.0, 12.990381056766578, 0, 12.990381056766578, 7.5, 0" fill="#ddd" fill-opacity="0.08933333333333333" stroke="#000" stroke-opacity="0.02" transform="translate(30.0, 0.0) rotate(0, 7.5, 6.495190528383289)"  /><polyline points="7.5, 0, 15.0, 12.990381056766578, 0, 12.990381056766578, 7.5, 0" fill="#222" fill-opacity="0.028666666666666667" stroke="#000" stroke-opacity="0.02" transform="translate(-7.5, 12.990381056766578) rotate(0, 7.5, 6.495190528383289)"  /><polyline points="7.5, 0, 15.0, 12.990381056766578, 0, 12.990381056766578, 7.5, 0" fill="#222" fill-opacity="0.028666666666666667" stroke="#000" stroke-opacity="0.02" transform="translate(37.5, 12.990381056766578) rotate(0, 7.5, 6.495190528383289)"  /><polyline points="7.5, 0, 15.0, 12.990381056766578, 0, 12.990381056766578, 7.5, 0" fill="#ddd" fill-opacity="0.05466666666666667" stroke="#000" stroke-opacity="0.02" transform="translate(0.0, 12.990381056766578) rotate(180, 7.5, 6.495190528383289)"  /><polyline points="7.5, 0, 15.0, 12.990381056766578, 0, 12.990381056766578, 7.5, 0" fill="#222" fill-opacity="0.11533333333333334" stroke="#000" stroke-opacity="0.02" transform="translate(7.5, 12.990381056766578) rotate(0, 7.5, 6.495190528383289)"  /><polyline points="7.5, 0, 15.0, 12.990381056766578, 0, 12.990381056766578, 7.5, 0" fill="#ddd" fill-opacity="0.14133333333333334" stroke="#000" stroke-opacity="0.02" transform="translate(15.0, 12.990381056766578) rotate(180, 7.5, 6.495190528383289)"  /><polyline points="7.5, 0, 15.0, 12.990381056766578, 0, 12.990381056766578, 7.5, 0" fill="#ddd" fill-opacity="0.07200000000000001" stroke="#000" stroke-opacity="0.02" transform="translate(22.5, 12.990381056766578) rotate(0, 7.5, 6.495190528383289)"  /><polyline points="7.5, 0, 15.0, 12.990381056766578, 0, 12.990381056766578, 7.5, 0" fill="#ddd" fill-opacity="0.10666666666666667" stroke="#000" stroke-opacity="0.02" transform="translate(30.0, 12.990381056766578) rotate(180, 7.5, 6.495190528383289)"  /><polyline points="7.5, 0, 15.0, 12.990381056766578, 0, 12.990381056766578, 7.5, 0" fill="#222" fill-opacity="0.046" stroke="#000" stroke-opacity="0.02" transform="translate(-7.5, 25.980762113533157) rotate(180, 7.5, 6.495190528383289)"  /><polyline points="7.5, 0, 15.0, 12.990381056766578, 0, 12.990381056766578, 7.5, 0" fill="#222" fill-opacity="0.046" stroke="#000" stroke-opacity="0.02" transform="translate(37.5, 25.980762113533157) rotate(180, 7.5, 6.495190528383289)"  /><polyline points="7.5, 0, 15.0, 12.990381056766578, 0, 12.990381056766578, 7.5, 0" fill="#ddd" fill-opacity="0.03733333333333333" stroke="#000" stroke-opacity="0.02" transform="translate(0.0, 25.980762113533157) rotate(0, 7.5, 6.495190528383289)"  /><polyline points="7.5, 0, 15.0, 12.990381056766578, 0, 12.990381056766578, 7.5, 0" fill="#ddd" fill-opacity="0.02" stroke="#000" stroke-opacity="0.02" transform="translate(7.5, 25.980762113533157) rotate(180, 7.5, 6.495190528383289)"  /><polyline points="7.5, 0, 15.0, 12.990381056766578, 0, 12.990381056766578, 7.5, 0" fill="#ddd" fill-opacity="0.10666666666666667" stroke="#000" stroke-opacity="0.02" transform="translate(15.0, 25.980762113533157) rotate(0, 7.5, 6.495190528383289)"  /><polyline points="7.5, 0, 15.0, 12.990381056766578, 0, 12.990381056766578, 7.5, 0" fill="#ddd" fill-opacity="0.05466666666666667" stroke="#000" stroke-opacity="0.02" transform="translate(22.5, 25.980762113533157) rotate(180, 7.5, 6.495190528383289)"  /><polyline points="7.5, 0, 15.0, 12.990381056766578, 0, 12.990381056766578, 7.5, 0" fill="#ddd" fill-opacity="0.07200000000000001" stroke="#000" stroke-opacity="0.02" transform="translate(30.0, 25.980762113533157) rotate(0, 7.5, 6.495190528383289)"  /><polyline points="7.5, 0, 15.0, 12.990381056766578, 0, 12.990381056766578, 7.5, 0" fill="#ddd" fill-opacity="0.08933333333333333" stroke="#000" stroke-opacity="0.02" transform="translate(-7.5, 38.97114317029973) rotate(0, 7.5, 6.495190528383289)"  /><polyline points="7.5, 0, 15.0, 12.990381056766578, 0, 12.990381056766578, 7.5, 0" fill="#ddd" fill-opacity="0.08933333333333333" stroke="#000" stroke-opacity="0.02" transform="translate(37.5, 38.97114317029973) rotate(0, 7.5, 6.495190528383289)"  /><polyline points="7.5, 0, 15.0, 12.990381056766578, 0, 12.990381056766578, 7.5, 0" fill="#222" fill-opacity="0.11533333333333334" stroke="#000" stroke-opacity="0.02" transform="translate(0.0, 38.97114317029973) rotate(180, 7.5, 6.495190528383289)"  /><polyline points="7.5, 0, 15.0, 12.990381056766578, 0, 12.990381056766578, 7.5, 0" fill="#ddd" fill-opacity="0.08933333333333333" stroke="#000" stroke-opacity="0.02" transform="translate(7.5, 38.97114317029973) rotate(0, 7.5, 6.495190528383289)"  /><polyline points="7.5, 0, 15.0, 12.990381056766578, 0, 12.990381056766578, 7.5, 0" fill="#ddd" fill-opacity="0.14133333333333334" stroke="#000" stroke-opacity="0.02" transform="translate(15.0, 38.97114317029973) rotate(180, 7.5, 6.495190528383289)"  /><polyline points="7.5, 0, 15.0, 12.990381056766578, 0, 12.990381056766578, 7.5, 0" fill="#ddd" fill-opacity="0.10666666666666667" stroke="#000" stroke-opacity="0.02" transform="translate(22.5, 38.97114317029973) rotate(0, 7.5, 6.495190528383289)"  /><polyline points="7.5, 0, 15.0, 12.990381056766578, 0, 12.990381056766578, 7.5, 0" fill="#222" fill-opacity="0.098" stroke="#000" stroke-opacity="0.02" transform="translate(30.0, 38.97114317029973) rotate(180, 7.5, 6.495190528383289)"  /><polyline points="7.5, 0, 15.0, 12.990381056766578, 0, 12.990381056766578, 7.5, 0" fill="#222" fill-opacity="0.046" stroke="#000" stroke-opacity="0.02" transform="translate(-7.5, 51.96152422706631) rotate(180, 7.5, 6.495190528383289)"  /><polyline points="7.5, 0, 15.0, 12.990381056766578, 0, 12.990381056766578, 7.5, 0" fill="#222" fill-opacity="0.046" stroke="#000" stroke-opacity="0.02" transform="translate(37.5, 51.96152422706631) rotate(180, 7.5, 6.495190528383289)"  /><polyline points="7.5, 0, 15.0, 12.990381056766578, 0, 12.990381056766578, 7.5, 0" fill="#ddd" fill-opacity="0.10666666666666667" stroke="#000" stroke-opacity="0.02" transform="translate(0.0, 51.96152422706631) rotate(0, 7.5, 6.495190528383289)"  /><polyline points="7.5, 0, 15.0, 12.990381056766578, 0, 12.990381056766578, 7.5, 0" fill="#222" fill-opacity="0.15" stroke="#000" stroke-opacity="0.02" transform="translate(7.5, 51.96152422706631) rotate(180, 7.5, 6.495190528383289)"  /><polyline points="7.5, 0, 15.0, 12.990381056766578, 0, 12.990381056766578, 7.5, 0" fill="#ddd" fill-opacity="0.08933333333333333" stroke="#000" stroke-opacity="0.02" transform="translate(15.0, 51.96152422706631) rotate(0, 7.5, 6.495190528383289)"  /><polyline points="7.5, 0, 15.0, 12.990381056766578, 0, 12.990381056766578, 7.5, 0" fill="#ddd" fill-opacity="0.14133333333333334" stroke="#000" stroke-opacity="0.02" transform="translate(22.5, 51.96152422706631) rotate(180, 7.5, 6.495190528383289)"  /><polyline points="7.5, 0, 15.0, 12.990381056766578, 0, 12.990381056766578, 7.5, 0" fill="#ddd" fill-opacity="0.14133333333333334" stroke="#000" stroke-opacity="0.02" transform="translate(30.0, 51.96152422706631) rotate(0, 7.5, 6.495190528383289)"  /><polyline points="7.5, 0, 15.0, 12.990381056766578, 0, 12.990381056766578, 7.5, 0" fill="#222" fill-opacity="0.028666666666666667" stroke="#000" stroke-opacity="0.02" transform="translate(-7.5, 64.95190528383289) rotate(0, 7.5, 6.495190528383289)"  /><polyline points="7.5, 0, 15.0, 12.990381056766578, 0, 12.990381056766578, 7.5, 0" fill="#222" fill-opacity="0.028666666666666667" stroke="#000" stroke-opacity="0.02" transform="translate(37.5, 64.95190528383289) rotate(0, 7.5, 6.495190528383289)"  /><polyline points="7.5, 0, 15.0, 12.990381056766578, 0, 12.990381056766578, 7.5, 0" fill="#222" fill-opacity="0.11533333333333334" stroke="#000" stroke-opacity="0.02" transform="translate(0.0, 64.95190528383289) rotate(180, 7.5, 6.495190528383289)"  /><polyline points="7.5, 0, 15.0, 12.990381056766578, 0, 12.990381056766578, 7.5, 0" fill="#ddd" fill-opacity="0.10666666666666667" stroke="#000" stroke-opacity="0.02" transform="translate(7.5, 64.95190528383289) rotate(0, 7.5, 6.495190528383289)"  /><polyline points="7.5, 0, 15.0, 12.990381056766578, 0, 12.990381056766578, 7.5, 0" fill="#ddd" fill-opacity="0.12400000000000001" stroke="#000" stroke-opacity="0.02" transform="translate(15.0, 64.95190528383289) rotate(180, 7.5, 6.495190528383289)"  /><polyline points="7.5, 0, 15.0, 12.990381056766578, 0, 12.990381056766578, 7.5, 0" fill="#222" fill-opacity="0.06333333333333334" stroke="#000" stroke-opacity="0.02" transform="translate(22.5, 64.95190528383289) rotate(0, 7.5, 6.495190528383289)"  /><polyline points="7.5, 0, 15.0, 12.990381056766578, 0, 12.990381056766578, 7.5, 0" fill="#222" fill-opacity="0.098" stroke="#000" stroke-opacity="0.02" transform="translate(30.0, 64.95190528383289) rotate(180, 7.5, 6.495190528383289)"  /></svg>